<svg width="24" height="30" viewBox="0 0 24 30" fill="none" xmlns="http://www.w3.org/2000/svg">
<path fill-rule="evenodd" clip-rule="evenodd" d="M12 3.87311C8.03815 3.87311 4.82644 7.09045 4.82644 11.0592C4.82644 11.9333 4.83906 12.3 4.94499 12.7109C5.05466 13.1363 5.29196 13.6985 5.92166 14.8144C6.13573 15.1937 6.73703 15.9388 7.68317 16.9641C8.58839 17.9451 9.69818 19.0659 10.8117 20.1592C11.9228 21.2502 13.0258 22.3022 13.9141 23.1444C14.1389 23.3576 14.3527 23.5598 14.5505 23.747C15.1173 24.2832 15.5537 24.6961 15.7472 24.89C16.6204 25.7648 17.2452 26.1269 17.9835 26.1269C19.4806 26.1269 20.6942 24.9112 20.6942 23.4114C20.6942 22.8419 20.521 22.3578 20.1817 21.8882C19.6465 21.1474 19.812 20.1122 20.5515 19.576C21.291 19.0399 22.3244 19.2057 22.8596 19.9465C23.5602 20.9161 24 22.0685 24 23.4114C24 26.7401 21.3063 29.4385 17.9835 29.4385C15.8904 29.4385 14.4535 28.2774 13.4095 27.2315C13.252 27.0737 12.8762 26.718 12.336 26.207C12.1279 26.0101 11.8955 25.7901 11.6417 25.5495C10.7486 24.7028 9.62939 23.6354 8.49768 22.5242C7.36826 21.4153 6.21447 20.2511 5.25565 19.212C4.33774 18.2173 3.47454 17.2072 3.04388 16.4441C2.38411 15.2749 1.9668 14.4023 1.74423 13.539C1.52059 12.6715 1.52062 11.9037 1.52066 11.0886L1.52066 11.0592C1.52066 5.26151 6.21241 0.561523 12 0.561523C17.7876 0.561523 22.4793 5.26151 22.4793 11.0592C22.4793 13.0752 21.9104 14.9631 20.9239 16.5649C20.6234 17.0527 20.0943 17.6667 19.5777 18.2315C19.0307 18.8293 18.3912 19.4854 17.7888 20.088C17.1845 20.6926 16.6079 21.253 16.183 21.6618C15.9703 21.8664 15.795 22.0335 15.6726 22.1498C15.6114 22.208 15.5633 22.2535 15.5304 22.2846C15.5139 22.3002 15.5012 22.3122 15.4925 22.3204L15.4798 22.3324L15.479 22.3331L15.4788 22.3333C15.4788 22.3333 15.4787 22.3334 14.3471 21.1265C13.2156 19.9195 13.2155 19.9195 13.2155 19.9195L13.216 19.9191L13.2267 19.909C13.2345 19.9017 13.2462 19.8906 13.2617 19.8759C13.2928 19.8466 13.3388 19.803 13.3978 19.7469C13.516 19.6347 13.6862 19.4723 13.8934 19.2731C14.3081 18.8741 14.8684 18.3295 15.4528 17.7448C16.0392 17.1583 16.6404 16.5408 17.1406 15.994C17.6712 15.414 17.9959 15.0122 18.1105 14.826C18.7844 13.7319 19.1736 12.4436 19.1736 11.0592C19.1736 7.09045 15.9618 3.87311 12 3.87311ZM3.4485 19.576C4.18798 20.1122 4.35354 21.1474 3.81828 21.8882C3.47896 22.3578 3.30578 22.8419 3.30578 23.4114C3.30578 24.9112 4.51943 26.1269 6.01653 26.1269C6.73742 26.1269 7.42276 25.7544 8.48412 24.6912L10.8217 27.0328C9.63509 28.2215 8.12707 29.4385 6.01653 29.4385C2.69369 29.4385 0 26.7401 0 23.4114C0 22.0685 0.439815 20.9161 1.14039 19.9465C1.67565 19.2057 2.70902 19.0399 3.4485 19.576Z" fill="#0180FF"/>
</svg>
